<?xml version="1.0" encoding="iso-8859-1"?>
<!-- Generator: Adobe Illustrator 19.0.0, SVG Export Plug-In . SVG Version: 6.00 Build 0)  -->
<svg version="1.1" id="Layer_1" xmlns="http://www.w3.org/2000/svg" xmlns:xlink="http://www.w3.org/1999/xlink" x="0px" y="0px"
	 viewBox="0 0 460 460" style="enable-background:new 0 0 460 460;" xml:space="preserve">
<g id="XMLID_242_">
	<path id="XMLID_244_" style="fill:#003778;" d="M460,159.318c-18,0-90,71-90,71l10,18c0,0,60,41,70,41c0,0-20-20-20-50
		S460,159.318,460,159.318z"/>
	<path id="XMLID_63_" style="fill:#003778;" d="M197.334,239.318L197.334,239.318c-21.733,8.106-32.781,32.296-24.674,54.029l0,0
		c8.106,21.734,32.295,32.781,54.029,24.675l0,0"/>
	<path id="XMLID_245_" style="fill:#003778;" d="M330,299.318c-16.568,0-30-13.432-30-30s13.432-30,30-30"/>
	<path id="XMLID_307_" style="fill:#003778;" d="M257.25,228.318l-22.25-89c-41.421,0-75,33.579-75,75c0,4.787,0.457,9.465,1.318,14
		H257.25z"/>
	<path id="XMLID_308_" style="fill:#006DF0;" d="M430,239.318c0,10-140,50-260,50c-140,0-170-50-170-50s30-50,170-50
		C290,189.318,430,229.318,430,239.318z"/>
	<circle id="XMLID_309_" style="fill:#001B3C;" cx="60" cy="239.318" r="10"/>
	<path id="XMLID_311_" style="fill:#003778;" d="M100,239.318c0,17.146,4.822,33.188,13.178,46.841
		c8.421,1.008,17.433,1.807,27.076,2.348C127.742,275.855,120,258.476,120,239.318H100z"/>
	<path id="XMLID_312_" style="fill:#0051B8;" d="M430,239.318c0-8.358-97.813-37.671-200-47.071v94.143
		C332.188,276.99,430,247.677,430,239.318z"/>
</g>
<g>
</g>
<g>
</g>
<g>
</g>
<g>
</g>
<g>
</g>
<g>
</g>
<g>
</g>
<g>
</g>
<g>
</g>
<g>
</g>
<g>
</g>
<g>
</g>
<g>
</g>
<g>
</g>
<g>
</g>
</svg>
